<svg width="900" height="494" viewBox="0 0 900 494" fill="none" xmlns="http://www.w3.org/2000/svg">
<path fill-rule="evenodd" clip-rule="evenodd" d="M187.566 187.184C218.859 187.184 244.237 212.563 244.237 243.866C244.237 275.159 218.859 300.538 187.566 300.538H131.587C138.197 296.084 144.187 291.219 149.737 286.063L149.756 286.081C138.169 275.713 130.894 260.647 130.894 243.866C130.894 212.563 156.272 187.184 187.566 187.184Z" fill="white"/>
<mask id="mask0_1_2" style="mask-type:luminance" maskUnits="userSpaceOnUse" x="68" y="141" width="240" height="220">
<path d="M68.0531 141.256H307.2V360.856H68.0531V141.256Z" fill="white"/>
</mask>
<g mask="url(#mask0_1_2)">
<path fill-rule="evenodd" clip-rule="evenodd" d="M97.2469 195.481H95.7375C80.5125 195.481 68.0531 207.941 68.0531 223.166V250.006C68.0531 265.278 80.5687 277.7 95.7375 277.7H111.019C106.434 267.35 103.894 255.894 103.894 243.856C103.894 197.797 141.197 160.175 187.566 160.175C233.934 160.175 271.247 197.787 271.247 243.856C271.247 255.894 268.706 267.35 264.122 277.7C253.819 300.987 233.194 318.678 208.059 325.006C203.962 317.947 196.322 313.203 187.566 313.203C174.487 313.203 163.884 323.806 163.884 336.894C163.884 349.972 174.487 360.575 187.566 360.575C198.253 360.575 207.281 353.506 210.234 343.775C244.969 335.937 273.009 310.456 284.447 277.231C297.281 274.841 307.087 263.506 307.087 250.006V223.166C307.087 207.941 294.628 195.481 279.394 195.481H277.884C260.616 163.297 226.65 141.425 187.566 141.425C148.481 141.425 114.516 163.297 97.2375 195.481H97.2469Z" fill="white"/>
<circle cx="165" cy="244" r="5" fill="#41B147"/>
<circle cx="188" cy="244" r="5" fill="#41B147"/>
<circle cx="211" cy="244" r="5" fill="#41B147"/>
</g>
<path d="M379.749 239.16C397.786 239.16 411.811 228.182 415.242 211.514H399.164C396.314 219.36 389.058 224.357 380.039 224.357C368.377 224.357 360.136 215.826 360.136 203.47C360.136 191.123 368.471 182.592 380.142 182.592C388.861 182.592 396.024 187.298 398.667 194.845H414.755C410.827 178.373 397.102 167.779 379.646 167.779C358.861 167.779 344.255 182.489 344.255 203.47C344.255 224.46 358.861 239.16 379.749 239.16Z" fill="white"/>
<path d="M445.336 238.776C452.986 238.776 459.258 236.32 463.673 231.81L465.342 237.792H476.423V206.807C476.423 193.176 467.198 184.945 451.805 184.945C438.67 184.945 430.045 191.217 428.18 202.392H442.495C443.377 198.764 447.098 196.317 451.908 196.317C457.786 196.317 461.808 199.654 461.808 204.745V207.098H443.18C432.492 207.098 425.63 213.276 425.63 222.792C425.63 232.692 433.177 238.776 445.336 238.776ZM440.339 222.201C440.339 218.676 443.283 216.417 447.792 216.417H461.911C461.611 223.382 456.22 228.089 448.767 228.089C443.667 228.089 440.339 225.735 440.339 222.201Z" fill="white"/>
<path d="M491.908 237.792H506.815V165.239H491.908V237.792Z" fill="white"/>
<path d="M523.283 237.792H538.189V165.239H523.283V237.792Z" fill="white"/>
<path d="M597.894 237.792H613.485V169.157H597.894V195.529H571.026V169.157H555.444V237.792H571.026V210.145H597.894V237.792Z" fill="white"/>
<path d="M651.233 239.16C657.992 239.16 664.077 236.807 668.192 232.007L669.758 237.792H680.839V186.314H665.942V213.182C665.942 221.32 661.527 226.317 654.758 226.317C648.486 226.317 644.661 221.91 644.661 214.354V186.314H629.755V215.826C629.755 230.142 637.892 239.16 651.233 239.16Z" fill="white"/>
<path d="M728.492 239.16C743.886 239.16 754.77 227.985 754.77 212.001C754.77 196.214 743.886 184.945 728.492 184.945C722.117 184.945 716.53 186.904 712.217 190.335V165.239H697.311V237.792H708.392L710.061 231.904C714.664 236.517 721.039 239.16 728.492 239.16ZM711.627 212.001C711.627 203.667 717.505 197.685 725.839 197.685C734.277 197.685 740.061 203.667 740.061 212.001C740.061 220.439 734.277 226.317 725.839 226.317C717.505 226.317 711.627 220.439 711.627 212.001Z" fill="white"/>
<path d="M379.749 332.12C397.786 332.12 411.811 321.142 415.242 304.474H399.164C396.314 312.32 389.058 317.317 380.039 317.317C368.377 317.317 360.136 308.786 360.136 296.43C360.136 284.083 368.471 275.552 380.142 275.552C388.861 275.552 396.024 280.258 398.667 287.805H414.755C410.827 271.333 397.102 260.739 379.646 260.739C358.861 260.739 344.255 275.449 344.255 296.43C344.255 317.42 358.861 332.12 379.749 332.12Z" fill="white"/>
<path d="M453.473 332.12C470.536 332.12 482.302 321.049 482.302 304.961C482.302 288.986 470.536 277.905 453.473 277.905C436.317 277.905 424.552 288.986 424.552 304.961C424.552 321.049 436.317 332.12 453.473 332.12ZM439.261 304.961C439.261 296.533 445.139 290.645 453.473 290.645C461.808 290.645 467.592 296.533 467.592 304.961C467.592 313.399 461.808 319.277 453.473 319.277C445.139 319.277 439.261 313.399 439.261 304.961Z" fill="white"/>
<path d="M495.144 330.752H510.05V303.789C510.05 295.652 514.559 290.645 521.422 290.645C527.797 290.645 531.622 295.155 531.622 302.711V330.752H546.519V301.136C546.519 286.924 538.381 277.905 524.947 277.905C518.084 277.905 511.906 280.258 507.791 285.058L506.225 279.274H495.144V330.752Z" fill="white"/>
<path d="M562.01 330.752H576.916V303.789C576.916 295.652 581.426 290.645 588.288 290.645C594.663 290.645 598.488 295.155 598.488 302.711V330.752H613.385V301.136C613.385 286.924 605.247 277.905 591.813 277.905C584.951 277.905 578.772 280.258 574.657 285.058L573.091 279.274H562.01V330.752Z" fill="white"/>
<path d="M653.195 332.12C665.842 332.12 675.845 325.652 680.354 314.767H665.251C662.804 318.199 658.389 320.158 653.485 320.158C646.717 320.158 641.429 316.342 640.051 309.283H681.329C682.21 290.449 671.035 277.905 653.392 277.905C636.723 277.905 625.248 288.986 625.248 304.961C625.248 321.049 636.62 332.12 653.195 332.12ZM640.154 299.861C641.814 293.589 646.914 289.764 653.485 289.764C660.348 289.764 665.251 293.589 666.92 299.861H640.154Z" fill="white"/>
<path d="M718.591 332.12C733.094 332.12 743.979 323.599 746.726 310.061H732.213C730.16 315.649 725.06 319.277 718.779 319.277C710.744 319.277 705.157 313.399 705.157 304.961C705.157 296.533 710.744 290.645 718.779 290.645C724.666 290.645 729.466 293.786 731.922 298.98H746.238C743.885 286.239 732.907 277.905 718.591 277.905C702.11 277.905 690.447 289.174 690.447 304.961C690.447 320.852 702.016 332.12 718.591 332.12Z" fill="white"/>
<path d="M784.179 330.752H793.592V317.805H787.414C781.535 317.805 778.789 314.964 778.789 308.983V291.433H792.907V279.274H778.789V265.942H767.22L766.329 272.608C765.551 277.905 764.079 279.274 758.492 279.274H753.879V291.433H763.882V311.242C763.882 323.786 771.139 330.752 784.179 330.752Z" fill="white"/>
</svg>
